<svg width="83" height="48" viewBox="0 0 83 48" fill="none" xmlns="http://www.w3.org/2000/svg">
<path d="M16.06 27.72V39H11.4V27.72L0.88 10.2H4.98C5.39333 10.2 5.72 10.3 5.96 10.5C6.2 10.7 6.4 10.9533 6.56 11.26L12.46 21.58C12.7267 22.1 12.9667 22.5933 13.18 23.06C13.4067 23.5267 13.6067 23.9867 13.78 24.44C13.9267 23.9733 14.1067 23.5133 14.32 23.06C14.5333 22.5933 14.7733 22.1 15.04 21.58L20.9 11.26C21.0333 10.9933 21.2267 10.7533 21.48 10.54C21.7333 10.3133 22.06 10.2 22.46 10.2H26.58L16.06 27.72ZM48.2872 32.58C48.5405 32.58 48.7605 32.68 48.9472 32.88L50.8072 34.9C49.6339 36.3133 48.1939 37.4067 46.4872 38.18C44.7805 38.94 42.7405 39.32 40.3672 39.32C38.2605 39.32 36.3539 38.96 34.6472 38.24C32.9539 37.5067 31.5072 36.4933 30.3072 35.2C29.1072 33.8933 28.1805 32.34 27.5272 30.54C26.8872 28.74 26.5672 26.76 26.5672 24.6C26.5672 22.44 26.9072 20.46 27.5872 18.66C28.2805 16.8467 29.2472 15.2933 30.4872 14C31.7405 12.6933 33.2339 11.68 34.9672 10.96C36.7139 10.24 38.6339 9.88 40.7272 9.88C42.8072 9.88 44.6405 10.22 46.2272 10.9C47.8272 11.5667 49.2139 12.46 50.3872 13.58L48.8472 15.76C48.7405 15.9067 48.6139 16.0333 48.4672 16.14C48.3205 16.2467 48.1205 16.3 47.8672 16.3C47.6005 16.3 47.2939 16.18 46.9472 15.94C46.6139 15.6867 46.1805 15.4133 45.6472 15.12C45.1272 14.8133 44.4672 14.54 43.6672 14.3C42.8805 14.0467 41.8939 13.92 40.7072 13.92C39.3339 13.92 38.0739 14.16 36.9272 14.64C35.7805 15.12 34.7939 15.82 33.9672 16.74C33.1405 17.66 32.4939 18.78 32.0272 20.1C31.5739 21.42 31.3472 22.92 31.3472 24.6C31.3472 26.2933 31.5872 27.8067 32.0672 29.14C32.5472 30.46 33.2072 31.58 34.0472 32.5C34.8872 33.4067 35.8739 34.1 37.0072 34.58C38.1405 35.06 39.3605 35.3 40.6672 35.3C41.4672 35.3 42.1805 35.26 42.8072 35.18C43.4472 35.0867 44.0339 34.9467 44.5672 34.76C45.1005 34.56 45.6005 34.3133 46.0672 34.02C46.5472 33.7267 47.0205 33.3667 47.4872 32.94C47.7539 32.7 48.0205 32.58 48.2872 32.58ZM78.6897 10.2V39H74.0097V26.18H59.5497V39H54.8497V10.2H59.5497V22.8H74.0097V10.2H78.6897Z" fill="#F1F1F1"/>
</svg>
